# xmcd
#
# Track frame offsets:
# 150
# 10947
# 24084
# 35095
# 46000
# 57465
# 70556
# 80319
# 92486
# 104701
# 117739
# 129189
# 140928
# 152663
# 163534
# 175244
# 187417
# 199207
# 211486
# 222563
# 234902
# 247072
# 260227
# 273052
# 285258
#
# Disc length: 3964 seconds
#
#
# Revision: 0
# Processed by: cddbd v1.5.2PL0 Copyright (c) Steve Scherf et al.
# Submitted via: FreeRIP 2.945 
#
DISCID=710f7a19
DTITLE=Hank Williams - 25 Original Recordings
DYEAR=2005
DGENRE=Country
TTITLE0=I can't help it (if I#m still in love with you)
TTITLE1=Hey good lookin'
TTITLE2=Crazy heart
TTITLE3=Lonesome wistle
TTITLE4=Baby we're really in love
TTITLE5=I've been down that road before
TTITLE6=Honky tonk blues
TTITLE7=I'm sorry for you my friend
TTITLE8=Half as much
TTITLE9=Jambalaya (on the bayou)
TTITLE10=Window shopping
TTITLE11=Settin' the woods on fire
TTITLE12=You win again
TTITLE13=I'll never get out of this world alive
TTITLE14=Kaw-liga
TTITLE15=Your cheatin heart
TTITLE16=Take this chain from my heart
TTITLE17=I wont be home no more
TTITLE18=Weary blues from waiting
TTITLE19=I saw the light
TTITLE20=The blues come around
TTITLE21=Help me understand
TTITLE22=Picture from the other side of life
TTITLE23=My sweet love ain't around
TTITLE24=I could never be ashamed of you
EXTD=
EXTT0=
EXTT1=
EXTT2=
EXTT3=
EXTT4=
EXTT5=
EXTT6=
EXTT7=
EXTT8=
EXTT9=
EXTT10=
EXTT11=
EXTT12=
EXTT13=
EXTT14=
EXTT15=
EXTT16=
EXTT17=
EXTT18=
EXTT19=
EXTT20=
EXTT21=
EXTT22=
EXTT23=
EXTT24=
PLAYORDER=
